<svg width="659" height="200" viewBox="0 0 659 200" fill="none" xmlns="http://www.w3.org/2000/svg">
<g clip-path="url(#clip0_71_2313)">
<path d="M547.1 36.9808C548.473 4.8252 523.796 -25.1703 500.332 -17.5676C476.868 -9.96503 457.99 12.6608 455.649 34.647C453.307 56.6331 492.754 44.2416 510.397 51.9002C528.088 59.6667 546.416 52.1531 547.1 36.9808Z" stroke="#5B5B5B" stroke-miterlimit="10"/>
<path d="M449.5 -21.5556C427.284 -12.3103 428.82 10.0083 414.506 28.6579C406.14 39.6197 407.192 45.6125 409.554 51.2807C413.405 60.2922 430.851 66.0939 437.616 67.8633C458.19 73.435 491.191 70.6313 508.592 82.1388C539.422 102.399 558.935 63.8599 566.723 43.9802C576.741 18.585 570.745 -0.326318 554.825 -10.6841C519.117 -33.5545 519.077 -50.3362 449.5 -21.5556Z" stroke="#5B5B5B" stroke-miterlimit="10"/>
<path d="M518.907 -50.1835C506.955 -65.0854 476.641 -48.4778 424.946 -39.7216C385.847 -33.0738 395.86 10.0452 371.462 39.5759C346.363 70.0666 365.205 74.3823 392.546 82.951C423.138 92.6656 481.154 89.781 509.942 112.095C553.217 145.591 575.418 75.2949 589.423 50.651C609.673 15.0596 598.052 -4.52708 577.96 -18.5275C557.272 -32.7811 527.299 -39.6597 518.907 -50.1835Z" stroke="#5B5B5B" stroke-miterlimit="10"/>
<path d="M530.863 -67.6332C519.04 -92.7379 475.604 -68.3378 401.108 -58.5306C345.823 -51.3071 363.328 9.42426 328.716 50.0123C292.023 92.8243 319.747 99.5588 363.023 106.378C407.348 113.378 477.195 112 512.039 141.261C567.838 188.187 593.155 86.0683 613.405 56.4169C644.614 10.7254 628.86 -11.5914 602.549 -27.1311C576.141 -42.8875 538.743 -51.025 530.863 -67.6332Z" stroke="#5B5B5B" stroke-miterlimit="10"/>
<path d="M637.214 61.3801C679.284 6.0358 659.314 -19.228 627.141 -36.3425C594.835 -53.397 550.278 -62.4101 542.946 -85.409C531.596 -120.333 474.599 -88.358 377.653 -77.5391C306.258 -69.5572 331.292 8.43729 286.49 59.8228C238.692 115 275.307 124.315 333.882 128.898C392.592 133.421 473.445 133.26 514.213 169.317C582.191 229.485 610.943 95.9763 637.214 61.3801Z" stroke="#5B5B5B" stroke-miterlimit="10"/>
<path d="M346.831 -88.4786C275.82 -68.5217 278.674 4.9557 236.962 59.5411C195.163 114.294 223.11 131.388 273.787 149.503C302.378 159.703 347.873 154.215 392.185 154.048C441.174 153.871 483.467 163.67 507.224 203.616C553.699 281.897 635.86 111.884 659.089 67.9895C691.64 6.60154 668.683 -23.2074 633.652 -45.6971C598.486 -68.1268 552.805 -82.6359 544.61 -112.281C532.466 -156.231 452.154 -118.012 346.831 -88.4786Z" stroke="#5B5B5B" stroke-miterlimit="10"/>
<path d="M317.158 -99.4713C246.493 -68.6564 226.973 1.2948 188.626 59.036C152.596 113.285 171.236 141.379 215.031 169.801C245.442 189.547 305.204 176.279 363.958 171.62C425.838 166.734 479.016 174.918 501.426 237.21C533.857 327.808 662.561 127.65 682.219 73.9559C706.674 7.11736 679.461 -27.9104 641.496 -55.5606C603.531 -83.2107 556.814 -103.338 547.907 -139.651C534.687 -192.177 431.328 -149.267 317.158 -99.4713Z" stroke="#5B5B5B" stroke-miterlimit="10"/>
<path d="M291.117 -107.085C220.503 -66.0637 178.547 0.919352 143.609 61.9286C112.929 115.474 121.308 156.031 159.422 193.451C190.32 223.724 265.729 201.804 338.919 192.657C413.601 183.234 480.632 188.873 498.863 274.383C520.696 376.678 693.439 146.96 708.575 83.5008C725.892 11.1715 693.336 -28.9819 652.569 -61.8538C611.755 -94.8337 563.913 -120.411 554.292 -163.395C540.531 -224.736 413.334 -178.205 291.117 -107.085Z" stroke="#5B5B5B" stroke-miterlimit="10"/>
</g>
<defs>
<clipPath id="clip0_71_2313">
<rect width="656" height="539" fill="white" transform="translate(0 -13) rotate(-24)"/>
</clipPath>
</defs>
</svg>
