<svg width="471" height="156" viewBox="0 0 471 156" fill="none" xmlns="http://www.w3.org/2000/svg">
<g clip-path="url(#clip0_83_794)">
<path d="M199.1 14.9805C200.473 -17.175 175.796 -47.1705 152.332 -39.5679C128.868 -31.9653 109.99 -9.33941 107.649 12.6467C105.307 34.6329 144.754 22.2413 162.397 29.9C180.088 37.6665 198.416 30.1528 199.1 14.9805Z" stroke="#5B5B5B" stroke-miterlimit="10"/>
<path d="M101.5 -43.5557C79.2837 -34.3104 80.8199 -11.9918 66.5062 6.65777C58.1396 17.6196 59.1923 23.6124 61.5543 29.2806C65.405 38.2921 82.8507 44.0937 89.6158 45.8632C110.19 51.4349 143.191 48.6312 160.592 60.1387C191.422 80.3993 210.935 41.8598 218.723 21.9801C228.741 -3.41517 222.745 -22.3264 206.825 -32.6842C171.117 -55.5547 171.077 -72.3364 101.5 -43.5557Z" stroke="#5B5B5B" stroke-miterlimit="10"/>
<path d="M170.907 -72.1834C158.955 -87.0853 128.641 -70.4777 76.9459 -61.7215C37.8475 -55.0737 47.8602 -11.9546 23.4619 17.576C-1.63691 48.0667 17.2045 52.3824 44.5463 60.9511C75.1377 70.6657 133.154 67.7811 161.942 90.0954C205.217 123.591 227.418 53.295 241.423 28.6511C261.673 -6.94026 250.052 -26.527 229.96 -40.5274C209.272 -54.781 179.299 -61.6595 170.907 -72.1834Z" stroke="#5B5B5B" stroke-miterlimit="10"/>
<path d="M182.863 -89.6332C171.04 -114.738 127.604 -90.3378 53.1078 -80.5306C-2.17686 -73.3071 15.3278 -12.5757 -19.2842 28.0123C-55.9765 70.8243 -28.2527 77.5588 15.0227 84.3776C59.3484 91.3776 129.195 90.0002 164.039 119.261C219.838 166.187 245.155 64.0683 265.405 34.4169C296.614 -11.2746 280.86 -33.5914 254.549 -49.1311C228.141 -64.8875 190.743 -73.025 182.863 -89.6332Z" stroke="#5B5B5B" stroke-miterlimit="10"/>
<path d="M289.214 39.3802C331.284 -15.9641 311.314 -41.2279 279.141 -58.3424C246.835 -75.3969 202.278 -84.41 194.946 -107.409C183.596 -142.333 126.599 -110.358 29.6534 -99.539C-41.7417 -91.5571 -16.708 -13.5626 -61.5098 37.8229C-109.308 93.0004 -72.6933 102.315 -14.1182 106.898C44.5917 111.421 125.445 111.26 166.213 147.317C234.191 207.486 262.943 73.9764 289.214 39.3802Z" stroke="#5B5B5B" stroke-miterlimit="10"/>
<path d="M-1.16902 -110.479C-72.1799 -90.5216 -69.3259 -17.0442 -111.038 37.5412C-152.837 92.2946 -124.89 109.388 -74.213 127.503C-45.622 137.703 -0.127303 132.216 44.1849 132.048C93.1737 131.871 135.467 141.67 159.224 181.616C205.699 259.897 287.86 89.8845 311.089 45.9896C343.64 -15.3983 320.683 -45.2073 285.652 -67.697C250.486 -90.1267 204.805 -104.636 196.61 -134.28C184.466 -178.231 104.154 -140.012 -1.16902 -110.479Z" stroke="#5B5B5B" stroke-miterlimit="10"/>
<path d="M-30.8416 -121.471C-101.507 -90.6562 -121.027 -20.705 -159.374 37.0362C-195.404 91.2848 -176.764 119.38 -132.969 147.802C-102.558 167.547 -42.7958 154.279 15.9581 149.62C77.8383 144.734 131.016 152.919 153.426 215.211C185.857 305.809 314.561 105.65 334.219 51.9562C358.674 -14.8824 331.461 -49.9102 293.496 -77.5603C255.531 -105.21 208.814 -125.338 199.907 -161.651C186.687 -214.176 83.3277 -171.266 -30.8416 -121.471Z" stroke="#5B5B5B" stroke-miterlimit="10"/>
<path d="M-56.8834 -129.086C-127.497 -88.0638 -169.453 -21.0808 -204.391 39.9285C-235.071 93.4736 -226.692 134.031 -188.578 171.451C-157.68 201.723 -82.2714 179.804 -9.08064 170.657C65.6007 161.234 132.632 166.873 150.863 252.383C172.696 354.678 345.439 124.96 360.575 61.5007C377.892 -10.8286 345.336 -50.982 304.569 -83.8539C263.755 -116.834 215.913 -142.411 206.292 -185.395C192.531 -246.736 65.3338 -200.205 -56.8834 -129.086Z" stroke="#5B5B5B" stroke-miterlimit="10"/>
</g>
<defs>
<clipPath id="clip0_83_794">
<rect width="656" height="539" fill="white" transform="translate(-348 -35) rotate(-24)"/>
</clipPath>
</defs>
</svg>
